<?xml version="1.0" encoding="UTF-8" standalone="no"?>
<svg
   xmlns:dc="http://purl.org/dc/elements/1.1/"
   xmlns:cc="http://creativecommons.org/ns#"
   xmlns:rdf="http://www.w3.org/1999/02/22-rdf-syntax-ns#"
   xmlns:svg="http://www.w3.org/2000/svg"
   xmlns="http://www.w3.org/2000/svg"
   xmlns:xlink="http://www.w3.org/1999/xlink"
   xmlns:sodipodi="http://sodipodi.sourceforge.net/DTD/sodipodi-0.dtd"
   xmlns:inkscape="http://www.inkscape.org/namespaces/inkscape"
   width="450"
   height="510"
   viewBox="0 0 119.0625 134.93752"
   version="1.1"
   id="svg1295"
   inkscape:version="1.0.1 (3bc2e813f5, 2020-09-07)"
   sodipodi:docname="drafty.svg">
  <defs
     id="defs1289">
    <linearGradient
       inkscape:collect="always"
       xlink:href="#linearGradient991"
       id="linearGradient993"
       x1="18.630901"
       y1="54.372837"
       x2="109.40595"
       y2="54.372837"
       gradientUnits="userSpaceOnUse"
       gradientTransform="translate(-4.070519,1.0176273)" />
    <linearGradient
       inkscape:collect="always"
       id="linearGradient991">
      <stop
         style="stop-color:#5e71b3;stop-opacity:1;"
         offset="0"
         id="stop987" />
      <stop
         style="stop-color:#5e71b3;stop-opacity:0;"
         offset="1"
         id="stop989" />
    </linearGradient>
  </defs>
  <sodipodi:namedview
     id="base"
     pagecolor="#ffffff"
     bordercolor="#666666"
     borderopacity="1.0"
     inkscape:pageopacity="0.0"
     inkscape:pageshadow="2"
     inkscape:zoom="1.979899"
     inkscape:cx="129.12262"
     inkscape:cy="273.11404"
     inkscape:document-units="mm"
     inkscape:current-layer="layer1"
     inkscape:document-rotation="0"
     showgrid="true"
     units="px"
     inkscape:window-width="2560"
     inkscape:window-height="1382"
     inkscape:window-x="0"
     inkscape:window-y="28"
     inkscape:window-maximized="1">
    <inkscape:grid
       type="xygrid"
       id="grid1938" />
    <sodipodi:guide
       position="0,158.75"
       orientation="300,0"
       id="guide1959" />
    <sodipodi:guide
       position="0,79.375"
       orientation="0,300"
       id="guide1961" />
    <sodipodi:guide
       position="79.375,79.375"
       orientation="-300,0"
       id="guide1963" />
    <sodipodi:guide
       position="79.375,158.75"
       orientation="0,-300"
       id="guide1965" />
  </sodipodi:namedview>
  <metadata
     id="metadata1292">
    <rdf:RDF>
      <cc:Work
         rdf:about="">
        <dc:format>image/svg+xml</dc:format>
        <dc:type
           rdf:resource="http://purl.org/dc/dcmitype/StillImage" />
        <dc:title />
      </cc:Work>
    </rdf:RDF>
  </metadata>
  <g
     inkscape:label="Layer 1"
     inkscape:groupmode="layer"
     id="layer1">
    <path
       style="display:inline;fill:#c1584e;fill-opacity:1;stroke:none;stroke-width:0.407694;stroke-linecap:round;stroke-linejoin:round;stroke-miterlimit:4;stroke-dasharray:none;stroke-opacity:1;paint-order:normal"
       d="M 117.73959,134.02163 V 22.179555 c 0,-16.3790787 -2.07768,-20.4495917 -20.326264,-20.4495917 H 59.73477 30.732362 21.981118 c -18.215896,0 -20.251153,2.035257 -20.251153,20.2831227 v 75.355486 c 0,18.335748 2.035257,20.371008 20.149698,20.371008 H 91.28125 l -4.070517,-12.21154 z"
       id="path895"
       sodipodi:nodetypes="cccccccccccc" />
    <path
       style="display:inline;fill:url(#linearGradient993);fill-opacity:1;stroke:#000000;stroke-width:0.264583px;stroke-linecap:butt;stroke-linejoin:miter;stroke-opacity:1"
       d="m 15.77323,55.257209 2.645834,-7.9375 5.291667,-5.291667 c 0,0 5.291666,-2.645833 5.291666,-2.645833 0,0 10.583334,-5.291663 11.90625,-5.291663 1.322917,0 11.90625,-5.29167 11.90625,-5.29167 l 2.116667,-0.793748 9.260417,-0.264585 1.852083,0.264585 14.552083,5.027082 16.40417,9.260415 3.704153,3.96875 3.70417,7.9375 0.79375,5.027084 -0.52917,7.408333 -4.4979,7.9375 -37.306256,8.466667 -25.135417,-3.704167 -15.345833,-3.175 -5.55625,-5.55625 c 0,0 -2.38125,-10.054167 -2.116667,-10.583333 0.264583,-0.529167 1.058333,-4.7625 1.058333,-4.7625 z"
       id="path985" />
    <ellipse
       style="display:inline;fill:#ffffff;fill-opacity:1;stroke:#ffffff;stroke-width:6.49229;stroke-linecap:round;stroke-linejoin:round;stroke-miterlimit:4;stroke-dasharray:none;stroke-opacity:1;paint-order:fill markers stroke"
       id="path1647"
       cx="60.219246"
       cy="60.582443"
       rx="46.062801"
       ry="31.837614" />
    <ellipse
       style="display:inline;fill:#c1584e;fill-opacity:1;stroke:none;stroke-width:1.35623;stroke-linecap:round;stroke-linejoin:round;paint-order:fill markers stroke"
       id="path1658"
       cx="87.918564"
       cy="-57.177353"
       rx="10.150235"
       ry="16.868528"
       transform="matrix(0.99992959,0.01186626,-0.10943068,-0.99399443,0,0)" />
    <path
       style="display:inline;fill:#c1584e;fill-opacity:1;stroke:none;stroke-width:1.46927;stroke-linecap:round;stroke-linejoin:round;paint-order:fill markers stroke"
       id="path1662"
       sodipodi:type="arc"
       sodipodi:cx="-60.211163"
       sodipodi:cy="-73.639008"
       sodipodi:rx="19.453857"
       sodipodi:ry="15.535446"
       sodipodi:start="0"
       sodipodi:end="3.1415927"
       sodipodi:open="true"
       sodipodi:arc-type="arc"
       transform="scale(-1)"
       d="m -40.757305,-73.639008 a 19.453857,15.535446 0 0 1 -9.726929,13.454092 19.453857,15.535446 0 0 1 -19.453858,-10e-7 19.453857,15.535446 0 0 1 -9.726928,-13.454091" />
    <path
       style="display:inline;fill:none;stroke:#ffffff;stroke-width:3.96875;stroke-linecap:butt;stroke-linejoin:miter;stroke-miterlimit:4;stroke-dasharray:none;stroke-opacity:1"
       d="M 53.055353,57.740979 V 73.778045"
       id="path1738" />
    <path
       style="display:inline;fill:none;stroke:#ffffff;stroke-width:3.96875;stroke-linecap:butt;stroke-linejoin:miter;stroke-miterlimit:4;stroke-dasharray:none;stroke-opacity:1"
       d="M 67.366981,57.740979 V 73.778042"
       id="path1738-7" />
    <ellipse
       style="display:inline;fill:#ffffff;fill-opacity:1;stroke:none;stroke-width:0.749035;stroke-linecap:round;stroke-linejoin:round;stroke-miterlimit:4;stroke-dasharray:none;stroke-opacity:1;paint-order:fill markers stroke"
       id="path1859"
       cx="90.920647"
       cy="55.04697"
       rx="1.377553"
       ry="2.5455656" />
    <ellipse
       style="display:inline;fill:#c1584e;fill-opacity:1;stroke:none;stroke-width:1.35623;stroke-linecap:round;stroke-linejoin:round;paint-order:fill markers stroke"
       id="path1658-9"
       cx="-32.669788"
       cy="-58.616932"
       rx="10.150235"
       ry="16.868528"
       transform="matrix(-0.99992959,0.01186626,0.10943068,-0.99399443,0,0)" />
    <path
       style="display:inline;fill:#c1584e;fill-opacity:1;stroke:#ffffff;stroke-width:3.84508;stroke-linecap:round;stroke-linejoin:round;stroke-miterlimit:4;stroke-dasharray:none;stroke-opacity:1;paint-order:normal"
       d="m 55.229175,53.158962 h 9.963981 L 67.878108,8.9551273 H 52.544223 Z"
       id="path1882"
       sodipodi:nodetypes="ccccc" />
    <path
       style="display:inline;fill:#ffffff;fill-opacity:1;stroke:none;stroke-width:0.57485;stroke-linecap:round;stroke-linejoin:round;stroke-miterlimit:4;stroke-dasharray:none;paint-order:normal"
       id="path960"
       sodipodi:type="arc"
       sodipodi:cx="-4.4281383"
       sodipodi:cy="60.905159"
       sodipodi:rx="6.5156426"
       sodipodi:ry="6.8273563"
       sodipodi:start="0"
       sodipodi:end="4.3710407"
       sodipodi:open="true"
       sodipodi:arc-type="arc"
       d="m 2.0875044,60.905159 a 6.5156426,6.8273563 0 0 1 -5.7758735,6.783209 6.5156426,6.8273563 0 0 1 -7.0874289,-5.242913 6.5156426,6.8273563 0 0 1 4.166497,-7.973742"
       transform="matrix(0.57070665,-0.82115402,0.49967439,0.86621331,0,0)" />
    <path
       style="display:inline;fill:#ffffff;fill-opacity:1;stroke:none;stroke-width:0.57485;stroke-linecap:round;stroke-linejoin:round;stroke-miterlimit:4;stroke-dasharray:none;paint-order:normal"
       id="path960-3"
       sodipodi:type="arc"
       sodipodi:cx="-119.50204"
       sodipodi:cy="-48.182755"
       sodipodi:rx="6.5156426"
       sodipodi:ry="6.8273563"
       sodipodi:start="0"
       sodipodi:end="4.3710407"
       sodipodi:open="true"
       sodipodi:arc-type="arc"
       d="m -112.98639,-48.182755 a 6.5156426,6.8273563 0 0 1 -5.77588,6.783209 6.5156426,6.8273563 0 0 1 -7.08743,-5.242913 6.5156426,6.8273563 0 0 1 4.1665,-7.973742"
       transform="matrix(-0.57070665,-0.82115402,-0.49967437,0.86621332,0,0)" />
    <ellipse
       style="display:inline;fill:#c1584e;fill-opacity:1;stroke:none;stroke-width:0.302284;stroke-linecap:round;stroke-linejoin:round;stroke-miterlimit:4;stroke-dasharray:none;stroke-opacity:1;paint-order:fill markers stroke"
       id="path1664"
       cx="65.919472"
       cy="55.708126"
       rx="0.41481277"
       ry="0.41471231" />
    <ellipse
       style="display:inline;fill:#c1584e;fill-opacity:1;stroke:none;stroke-width:0.302284;stroke-linecap:round;stroke-linejoin:round;stroke-miterlimit:4;stroke-dasharray:none;stroke-opacity:1;paint-order:fill markers stroke"
       id="path1664-1"
       cx="54.508701"
       cy="55.706722"
       rx="0.41481277"
       ry="0.41471231" />
    <path
       style="display:inline;fill:#ffffff;fill-opacity:1;stroke:#ffffff;stroke-width:0.264583px;stroke-linecap:butt;stroke-linejoin:miter;stroke-opacity:1"
       d="m 37.469069,52.703202 -0.673862,-4.589741 -19.92087,2.594502 c -0.307356,0.580498 -1.365689,3.490915 -1.363534,4.855091 z"
       id="path1166"
       sodipodi:nodetypes="ccccc" />
    <path
       style="display:inline;fill:#ffffff;fill-opacity:1;stroke:#ffffff;stroke-width:0.264583px;stroke-linecap:butt;stroke-linejoin:miter;stroke-opacity:1"
       d="m 82.981919,52.71211 0.67386,-4.58974 19.920861,2.594501 c 0.30736,0.580499 1.36569,3.490915 1.36354,4.855091 z"
       id="path1166-6"
       sodipodi:nodetypes="ccccc" />
  </g>
</svg>
