<?xml version="1.0" encoding="UTF-8" standalone="no"?>
<svg
   xmlns:dc="http://purl.org/dc/elements/1.1/"
   xmlns:cc="http://creativecommons.org/ns#"
   xmlns:rdf="http://www.w3.org/1999/02/22-rdf-syntax-ns#"
   xmlns:svg="http://www.w3.org/2000/svg"
   xmlns="http://www.w3.org/2000/svg"
   xmlns:xlink="http://www.w3.org/1999/xlink"
   xmlns:sodipodi="http://sodipodi.sourceforge.net/DTD/sodipodi-0.dtd"
   xmlns:inkscape="http://www.inkscape.org/namespaces/inkscape"
   width="1750"
   height="500"
   viewBox="0 0 463.02087 132.29167"
   version="1.1"
   id="svg1042"
   inkscape:version="1.0.1 (3bc2e813f5, 2020-09-07)"
   sodipodi:docname="logo_text.svg"
   inkscape:export-filename="/home/jkufa/Pictures/drafty_logo.png"
   inkscape:export-xdpi="96"
   inkscape:export-ydpi="96">
  <defs
     id="defs1036">
    <rect
       x="134.93752"
       y="37.041668"
       width="187.85419"
       height="82.020836"
       id="rect869" />
    <linearGradient
       inkscape:collect="always"
       id="linearGradient991">
      <stop
         style="stop-color:#5e71b3;stop-opacity:1;"
         offset="0"
         id="stop987" />
      <stop
         style="stop-color:#5e71b3;stop-opacity:0;"
         offset="1"
         id="stop989" />
    </linearGradient>
    <linearGradient
       inkscape:collect="always"
       xlink:href="#linearGradient991"
       id="linearGradient993"
       x1="18.630901"
       y1="54.372837"
       x2="109.40595"
       y2="54.372837"
       gradientUnits="userSpaceOnUse" />
  </defs>
  <sodipodi:namedview
     id="base"
     pagecolor="#ffffff"
     bordercolor="#666666"
     borderopacity="1.0"
     inkscape:pageopacity="0.0"
     inkscape:pageshadow="2"
     inkscape:zoom="0.4953"
     inkscape:cx="327.70087"
     inkscape:cy="440.09328"
     inkscape:document-units="px"
     inkscape:current-layer="layer2"
     inkscape:document-rotation="0"
     showgrid="true"
     units="px"
     gridtolerance="10"
     inkscape:window-width="2560"
     inkscape:window-height="1382"
     inkscape:window-x="0"
     inkscape:window-y="28"
     inkscape:window-maximized="1"
     showguides="true"
     inkscape:guide-bbox="true"
     inkscape:snap-text-baseline="true">
    <inkscape:grid
       type="xygrid"
       id="grid1605" />
    <sodipodi:guide
       position="0,132.29167"
       orientation="250,0"
       id="guide1609" />
    <sodipodi:guide
       position="0,66.145834"
       orientation="0,250"
       id="guide1611" />
    <sodipodi:guide
       position="66.145836,66.145834"
       orientation="-250,0"
       id="guide1613" />
    <sodipodi:guide
       position="66.145836,132.29167"
       orientation="0,-250"
       id="guide1615" />
    <sodipodi:guide
       position="60.854168,68.791668"
       orientation="0,-1"
       id="guide979" />
    <sodipodi:guide
       position="41.010418,82.020835"
       orientation="0,-1"
       id="guide981" />
  </sodipodi:namedview>
  <metadata
     id="metadata1039">
    <rdf:RDF>
      <cc:Work
         rdf:about="">
        <dc:format>image/svg+xml</dc:format>
        <dc:type
           rdf:resource="http://purl.org/dc/dcmitype/StillImage" />
        <dc:title />
      </cc:Work>
    </rdf:RDF>
  </metadata>
  <g
     inkscape:groupmode="layer"
     id="layer4"
     inkscape:label="Layer 3"
     style="display:inline"
     sodipodi:insensitive="true">
    <path
       style="fill:#7289da;fill-opacity:1;stroke:none;stroke-width:0.407694;stroke-linecap:round;stroke-linejoin:round;stroke-miterlimit:4;stroke-dasharray:none;stroke-opacity:1;paint-order:normal"
       d="M 121.81012,133.00401 V 21.161928 c 0,-16.3790787 -2.07768,-20.4495917 -20.32627,-20.4495917 H 63.805293 34.802883 26.051638 c -18.2158968,0 -20.2511538,2.035257 -20.2511538,20.2831227 v 75.35549 c 0,18.335751 2.035257,20.371011 20.1496988,20.371011 h 69.40159 l -4.070517,-12.21154 z"
       id="path895"
       sodipodi:nodetypes="cccccccccccc" />
  </g>
  <g
     inkscape:label="Layer 1"
     inkscape:groupmode="layer"
     id="layer1"
     style="display:inline">
    <path
       style="fill:url(#linearGradient993);fill-opacity:1;stroke:#000000;stroke-width:0.264583px;stroke-linecap:butt;stroke-linejoin:miter;stroke-opacity:1"
       d="m 19.84375,54.239585 2.645834,-7.937501 5.291667,-5.291666 c 0,0 5.291667,-2.645834 5.291667,-2.645834 0,0 10.583333,-5.291666 11.90625,-5.291666 1.322916,0 11.90625,-5.291667 11.90625,-5.291667 l 2.116667,-0.79375 9.260417,-0.264584 1.852083,0.264584 14.552084,5.027083 16.404171,9.260417 3.70416,3.96875 3.70417,7.9375 0.79375,5.027084 -0.52917,7.408333 -4.49791,7.937501 -37.306255,8.466666 -25.135417,-3.704166 -15.345834,-3.175 -5.55625,-5.556251 c 0,0 -2.38125,-10.054166 -2.116667,-10.583333 0.264583,-0.529167 1.058333,-4.7625 1.058333,-4.7625 z"
       id="path985" />
  </g>
  <g
     inkscape:groupmode="layer"
     id="layer2"
     inkscape:label="Layer 2"
     style="display:inline">
    <ellipse
       style="display:inline;fill:#ffffff;fill-opacity:1;stroke:none;stroke-width:1.2753;stroke-linecap:round;stroke-linejoin:round;paint-order:fill markers stroke"
       id="path1647"
       cx="64.281685"
       cy="59.778034"
       rx="46.001652"
       ry="33.092358" />
    <ellipse
       style="fill:#7289da;fill-opacity:1;stroke:none;stroke-width:1.35623;stroke-linecap:round;stroke-linejoin:round;paint-order:fill markers stroke"
       id="path1658"
       cx="92.106888"
       cy="-56.10358"
       rx="10.150236"
       ry="16.86853"
       transform="matrix(0.99992959,0.01186626,-0.10943068,-0.99399443,0,0)" />
    <path
       style="fill:#7289da;fill-opacity:1;stroke:none;stroke-width:1.46927;stroke-linecap:round;stroke-linejoin:round;paint-order:fill markers stroke"
       id="path1662"
       sodipodi:type="arc"
       sodipodi:cx="-64.281685"
       sodipodi:cy="-72.621376"
       sodipodi:rx="19.453857"
       sodipodi:ry="15.535447"
       sodipodi:start="0"
       sodipodi:end="3.1415927"
       sodipodi:open="true"
       sodipodi:arc-type="arc"
       transform="scale(-1)"
       d="m -44.827827,-72.621376 a 19.453857,15.535447 0 0 1 -9.726929,13.454092 19.453857,15.535447 0 0 1 -19.453858,0 19.453857,15.535447 0 0 1 -9.726928,-13.454092" />
    <ellipse
       style="fill:#7289da;fill-opacity:1;stroke:none;stroke-width:0.635307;stroke-linecap:round;stroke-linejoin:round;paint-order:fill markers stroke"
       id="path1664"
       cx="70.415298"
       cy="54.691948"
       rx="1.2707655"
       ry="1.2704577" />
    <ellipse
       style="fill:#7289da;fill-opacity:1;stroke:none;stroke-width:0.635307;stroke-linecap:round;stroke-linejoin:round;paint-order:fill markers stroke"
       id="path1664-1"
       cx="58.153923"
       cy="54.687653"
       rx="1.2707655"
       ry="1.2704577" />
    <path
       style="fill:none;stroke:#ffffff;stroke-width:1.5875;stroke-linecap:butt;stroke-linejoin:miter;stroke-miterlimit:4;stroke-dasharray:none;stroke-opacity:1"
       d="M 57.125874,56.723355 V 72.76042"
       id="path1738" />
    <path
       style="fill:none;stroke:#ffffff;stroke-width:1.5875;stroke-linecap:butt;stroke-linejoin:miter;stroke-miterlimit:4;stroke-dasharray:none;stroke-opacity:1"
       d="M 71.437502,56.723354 V 72.760419"
       id="path1738-7" />
    <ellipse
       style="fill:#ffffff;fill-opacity:1;stroke:none;stroke-width:0.749035;stroke-linecap:round;stroke-linejoin:round;stroke-miterlimit:4;stroke-dasharray:none;stroke-opacity:1;paint-order:fill markers stroke"
       id="path1859"
       cx="94.991165"
       cy="54.029346"
       rx="1.3775531"
       ry="2.5455658" />
    <ellipse
       style="fill:#7289da;fill-opacity:1;stroke:none;stroke-width:1.35623;stroke-linecap:round;stroke-linejoin:round;paint-order:fill markers stroke"
       id="path1658-9"
       cx="-36.633736"
       cy="-57.64048"
       rx="10.150236"
       ry="16.86853"
       transform="matrix(-0.99992959,0.01186626,0.10943068,-0.99399443,0,0)" />
    <path
       style="fill:#ffffff;fill-opacity:1;stroke:#7289da;stroke-width:1.5875;stroke-linecap:round;stroke-linejoin:round;stroke-miterlimit:4;stroke-dasharray:none;stroke-opacity:1;paint-order:normal"
       d="m 63.003863,52.141337 h 2.555648 L 71.948631,5.0483704 H 56.614744 Z"
       id="path1882"
       sodipodi:nodetypes="ccccc" />
    <path
       style="fill:none;stroke:#ffffff;stroke-width:1.5875;stroke-linecap:butt;stroke-linejoin:miter;stroke-miterlimit:4;stroke-dasharray:none;stroke-opacity:1"
       d="M 41.782511,49.59577 20.83568,52.141337"
       id="path1738-0" />
    <path
       style="fill:none;stroke:#ffffff;stroke-width:1.5875;stroke-linecap:butt;stroke-linejoin:miter;stroke-miterlimit:4;stroke-dasharray:none;stroke-opacity:1"
       d="m 87.532321,49.745153 20.946849,2.545566"
       id="path1738-0-6" />
    <path
       style="fill:#ffffff;fill-opacity:1;stroke:none;stroke-width:0.57485;stroke-linecap:round;stroke-linejoin:round;stroke-miterlimit:4;stroke-dasharray:none;paint-order:normal"
       id="path960"
       sodipodi:type="arc"
       sodipodi:cx="1.5514721"
       sodipodi:cy="65.398918"
       sodipodi:rx="6.5156431"
       sodipodi:ry="6.8273568"
       sodipodi:start="0"
       sodipodi:end="4.3710407"
       sodipodi:open="true"
       sodipodi:arc-type="arc"
       d="m 8.0671152,65.398918 a 6.5156431,6.8273568 0 0 1 -5.7758739,6.783209 6.5156431,6.8273568 0 0 1 -7.0874294,-5.242913 6.5156431,6.8273568 0 0 1 4.16649725,-7.973743"
       transform="matrix(0.57070665,-0.82115402,0.49967438,0.86621332,0,0)" />
    <path
       style="display:inline;fill:#ffffff;fill-opacity:1;stroke:none;stroke-width:0.57485;stroke-linecap:round;stroke-linejoin:round;stroke-miterlimit:4;stroke-dasharray:none;paint-order:normal"
       id="path960-3"
       sodipodi:type="arc"
       sodipodi:cx="-121.31744"
       sodipodi:cy="-51.078529"
       sodipodi:rx="6.5156431"
       sodipodi:ry="6.8273568"
       sodipodi:start="0"
       sodipodi:end="4.3710407"
       sodipodi:open="true"
       sodipodi:arc-type="arc"
       d="m -114.80179,-51.078529 a 6.5156431,6.8273568 0 0 1 -5.77588,6.783209 6.5156431,6.8273568 0 0 1 -7.08743,-5.242913 6.5156431,6.8273568 0 0 1 4.1665,-7.973743"
       transform="matrix(-0.57070665,-0.82115402,-0.49967437,0.86621332,0,0)" />
    <g
       aria-label="DRAFTY"
       transform="matrix(7.7594597,0,0,7.7594597,-909.31793,-268.54309)"
       id="text867"
       style="font-style:normal;font-weight:normal;font-size:10.5833px;line-height:1.25;font-family:sans-serif;white-space:pre;shape-inside:url(#rect869);opacity:0.999;fill:#000000;fill-opacity:1;stroke:none;stroke-width:1.5465;stroke-miterlimit:4;stroke-dasharray:none">
      <path
         id="path1099"
         style="font-style:normal;font-variant:normal;font-weight:900;font-stretch:normal;font-size:10.5833px;font-family:'Uni Sans';-inkscape-font-specification:'Uni Sans, Heavy';font-variant-ligatures:normal;font-variant-caps:normal;font-variant-numeric:normal;font-variant-east-asian:normal;fill:#ffffff;fill-opacity:1"
         sodipodi:type="inkscape:offset"
         inkscape:radius="0"
         inkscape:original="M 161.60742 38.900391 L 161.60742 40.701172 L 163.59766 40.701172 L 163.59766 46.404297 L 165.51172 46.404297 L 165.51172 40.701172 L 167.50195 40.701172 L 167.50195 38.900391 L 161.60742 38.900391 z M 135.5293 38.912109 L 135.5293 46.404297 L 138.33398 46.404297 C 139.83681 46.414877 141.24609 45.66453 141.24609 43.939453 L 141.24609 41.419922 C 141.24609 39.673678 139.83681 38.912109 138.33398 38.912109 L 135.5293 38.912109 z M 142.26172 38.912109 L 142.26172 46.404297 L 144.17578 46.404297 L 144.17578 44.023438 L 144.51562 44.023438 L 146.25195 46.404297 L 148.44141 46.404297 L 148.61133 46.404297 L 150.47461 46.404297 L 150.93945 44.902344 L 152.93945 44.902344 L 153.42578 46.404297 L 155.45898 46.404297 L 152.78125 38.912109 L 151.05664 38.912109 L 148.49414 46.255859 L 146.56836 43.833984 C 147.47853 43.548234 148.03906 42.763365 148.03906 41.376953 C 147.99676 39.620125 146.80103 38.912109 145.25586 38.912109 L 142.26172 38.912109 z M 155.95508 38.912109 L 155.95508 46.404297 L 157.87109 46.404297 L 157.87109 43.822266 L 160.75977 43.822266 L 160.75977 42.054688 L 157.87109 42.054688 L 157.87109 40.710938 L 161.17383 40.710938 L 161.17383 38.912109 L 155.95508 38.912109 z M 167.55469 38.912109 L 170.16992 43.451172 L 170.16992 46.404297 L 172.06445 46.404297 L 172.06445 43.451172 L 174.6875 38.912109 L 172.4668 38.912109 L 171.11133 41.664062 L 169.75586 38.912109 L 167.55469 38.912109 z M 137.43555 40.679688 L 138.39844 40.679688 C 139.03344 40.679688 139.33984 40.985824 139.33984 41.472656 L 139.33984 43.8125 C 139.33984 44.299332 139.04402 44.626953 138.39844 44.626953 L 137.43555 44.626953 L 137.43555 40.679688 z M 144.17578 40.679688 L 145.28711 40.679688 C 146.48303 40.679688 146.48303 42.394531 145.28711 42.394531 L 144.17578 42.394531 L 144.17578 40.679688 z M 151.91406 41.029297 L 151.9668 41.029297 L 152.48438 43.21875 L 151.36328 43.21875 L 151.91406 41.029297 z "
         d="m 161.60742,38.900391 v 1.800781 h 1.99024 v 5.703125 h 1.91406 v -5.703125 h 1.99023 v -1.800781 z m -26.07812,0.01172 v 7.492188 h 2.80468 c 1.50283,0.01058 2.91211,-0.739767 2.91211,-2.464844 v -2.519531 c 0,-1.746244 -1.40928,-2.507813 -2.91211,-2.507813 z m 6.73242,0 v 7.492188 h 1.91406 v -2.380859 h 0.33984 l 1.73633,2.380859 h 2.18946 0.16992 1.86328 l 0.46484,-1.501953 h 2 l 0.48633,1.501953 h 2.0332 l -2.67773,-7.492188 h -1.72461 l -2.5625,7.34375 -1.92578,-2.421875 c 0.91017,-0.28575 1.4707,-1.070619 1.4707,-2.457031 -0.0423,-1.756828 -1.23803,-2.464844 -2.7832,-2.464844 z m 13.69336,0 v 7.492188 h 1.91601 v -2.582031 h 2.88868 v -1.767578 h -2.88868 v -1.34375 h 3.30274 v -1.798829 z m 11.59961,0 2.61523,4.539063 v 2.953125 h 1.89453 v -2.953125 l 2.62305,-4.539063 h -2.2207 l -1.35547,2.751953 -1.35547,-2.751953 z m -30.11914,1.767579 h 0.96289 c 0.635,0 0.9414,0.306136 0.9414,0.792968 V 43.8125 c 0,0.486832 -0.29582,0.814453 -0.9414,0.814453 h -0.96289 z m 6.74023,0 h 1.11133 c 1.19592,0 1.19592,1.714843 0,1.714843 h -1.11133 z m 7.73828,0.349609 h 0.0527 l 0.51758,2.189453 h -1.1211 z" />
    </g>
  </g>
</svg>
